<svg width="1056" height="300" viewBox="0 0 1056 300" fill="none" xmlns="http://www.w3.org/2000/svg">
<mask id="mask0_101_35" style="mask-type:alpha" maskUnits="userSpaceOnUse" x="0" y="0" width="300" height="300">
<circle cx="150" cy="150" r="150" transform="rotate(-180 150 150)" fill="#FF6363"/>
</mask>
<g mask="url(#mask0_101_35)">
<rect x="347" y="457" width="418" height="257" transform="rotate(-180 347 457)" fill="black"/>
</g>
<ellipse cx="150" cy="200" rx="141" ry="50" fill="white"/>
<ellipse cx="150" cy="175" rx="148" ry="50" fill="black"/>
<mask id="mask1_101_35" style="mask-type:alpha" maskUnits="userSpaceOnUse" x="0" y="0" width="300" height="300">
<circle cx="150" cy="150" r="150" fill="#FF6363"/>
</mask>
<g mask="url(#mask1_101_35)">
<rect x="-23" y="125" width="354" height="51" fill="black"/>
</g>
<ellipse cx="150" cy="126" rx="148" ry="50" fill="white"/>
<mask id="mask2_101_35" style="mask-type:alpha" maskUnits="userSpaceOnUse" x="0" y="0" width="300" height="300">
<circle cx="150" cy="150" r="150" fill="#FF6363"/>
</mask>
<g mask="url(#mask2_101_35)">
<rect x="-47" y="-157" width="418" height="257" fill="black"/>
</g>
<path d="M291 100C291 127.614 227.872 150 150 150C72.1279 150 9 127.614 9 100C20.5 73 72.1279 50 150 50C227.872 50 280.5 70.5 291 100Z" fill="black"/>
<path d="M402.355 140.734C407.564 140.734 412.251 141.597 416.418 143.322C420.585 145.048 424.133 147.505 427.062 150.695C429.992 153.885 432.238 157.775 433.801 162.365C435.396 166.923 436.193 172.049 436.193 177.746C436.193 183.475 435.412 188.635 433.85 193.225C432.287 197.782 430.041 201.656 427.111 204.846C424.182 208.036 420.617 210.493 416.418 212.219C412.251 213.944 407.564 214.807 402.355 214.807C397.115 214.807 392.395 213.944 388.195 212.219C384.029 210.493 380.48 208.036 377.551 204.846C374.621 201.656 372.359 197.782 370.764 193.225C369.201 188.635 368.42 183.475 368.42 177.746C368.42 172.049 369.217 166.923 370.812 162.365C372.408 157.775 374.67 153.885 377.6 150.695C380.562 147.473 384.126 145.015 388.293 143.322C392.492 141.597 397.18 140.734 402.355 140.734ZM402.355 153.674C399.491 153.674 396.903 154.243 394.592 155.383C392.281 156.49 390.295 158.085 388.635 160.168C387.007 162.251 385.738 164.79 384.826 167.785C383.947 170.747 383.508 174.068 383.508 177.746C383.508 181.424 383.947 184.745 384.826 187.707C385.705 190.669 386.958 193.208 388.586 195.324C390.214 197.408 392.183 199.019 394.494 200.158C396.838 201.298 399.458 201.867 402.355 201.867C405.22 201.867 407.808 201.298 410.119 200.158C412.43 199.019 414.4 197.408 416.027 195.324C417.688 193.208 418.957 190.669 419.836 187.707C420.715 184.745 421.154 181.424 421.154 177.746C421.154 174.068 420.715 170.747 419.836 167.785C418.957 164.79 417.688 162.251 416.027 160.168C414.4 158.085 412.43 156.49 410.119 155.383C407.808 154.243 405.22 153.674 402.355 153.674ZM479.846 158.264C483.264 158.264 486.324 158.898 489.025 160.168C491.727 161.405 494.022 163.228 495.91 165.637C497.831 168.013 499.296 170.926 500.305 174.377C501.314 177.795 501.818 181.685 501.818 186.047C501.818 190.409 501.314 194.315 500.305 197.766C499.328 201.184 497.896 204.081 496.008 206.457C494.12 208.833 491.825 210.656 489.123 211.926C486.454 213.195 483.443 213.83 480.09 213.83C476.216 213.83 472.863 213.033 470.031 211.438C467.232 209.842 465.165 207.613 463.83 204.748H462.951V230.871H448.742V159.143H462.512V167.98H463.391C464.107 166.483 465.018 165.132 466.125 163.928C467.264 162.723 468.534 161.698 469.934 160.852C471.333 160.005 472.863 159.37 474.523 158.947C476.216 158.492 477.99 158.264 479.846 158.264ZM475.012 201.965C476.932 201.965 478.641 201.607 480.139 200.891C481.669 200.174 482.954 199.133 483.996 197.766C485.038 196.398 485.835 194.738 486.389 192.785C486.942 190.799 487.219 188.553 487.219 186.047C487.219 183.573 486.942 181.359 486.389 179.406C485.835 177.453 485.021 175.793 483.947 174.426C482.906 173.059 481.636 172.017 480.139 171.301C478.641 170.552 476.949 170.178 475.061 170.178C473.173 170.178 471.464 170.552 469.934 171.301C468.436 172.017 467.15 173.059 466.076 174.426C465.035 175.793 464.221 177.469 463.635 179.455C463.081 181.408 462.805 183.622 462.805 186.096C462.805 188.57 463.081 190.783 463.635 192.736C464.221 194.689 465.035 196.35 466.076 197.717C467.15 199.084 468.436 200.142 469.934 200.891C471.431 201.607 473.124 201.965 475.012 201.965ZM536.682 168.859C535.021 168.859 533.508 169.136 532.141 169.689C530.773 170.243 529.569 171.024 528.527 172.033C527.518 173.042 526.704 174.263 526.086 175.695C525.467 177.095 525.093 178.674 524.963 180.432H547.912C547.749 176.851 546.675 174.035 544.689 171.984C542.704 169.901 540.035 168.859 536.682 168.859ZM561.438 197.668C560.884 200.207 559.908 202.502 558.508 204.553C557.141 206.571 555.399 208.296 553.283 209.729C551.167 211.161 548.71 212.251 545.91 213C543.143 213.781 540.116 214.172 536.828 214.172C532.727 214.172 529.064 213.553 525.842 212.316C522.619 211.047 519.885 209.224 517.639 206.848C515.393 204.439 513.684 201.509 512.512 198.059C511.34 194.608 510.754 190.702 510.754 186.34C510.754 181.945 511.34 178.007 512.512 174.523C513.716 171.008 515.441 168.029 517.688 165.588C519.934 163.146 522.652 161.275 525.842 159.973C529.032 158.638 532.629 157.971 536.633 157.971C540.604 157.971 544.152 158.589 547.277 159.826C550.402 161.063 553.039 162.854 555.188 165.197C557.368 167.508 559.029 170.357 560.168 173.742C561.307 177.095 561.877 180.904 561.877 185.168V189.514H524.914V190.246C524.947 192.264 525.256 194.071 525.842 195.666C526.46 197.261 527.29 198.628 528.332 199.768C529.406 200.874 530.692 201.737 532.189 202.355C533.687 202.941 535.363 203.234 537.219 203.234C540.051 203.234 542.395 202.762 544.25 201.818C546.138 200.842 547.456 199.458 548.205 197.668H561.438ZM573.547 159.143H587.316V167.785H588.195C589.432 164.725 591.385 162.333 594.055 160.607C596.757 158.85 600.109 157.971 604.113 157.971C610.103 157.971 614.66 159.729 617.785 163.244C620.943 166.76 622.521 171.74 622.521 178.186V213H608.312V181.555C608.312 177.811 607.499 174.995 605.871 173.107C604.276 171.187 601.786 170.227 598.4 170.227C596.74 170.227 595.259 170.503 593.957 171.057C592.655 171.61 591.532 172.408 590.588 173.449C589.676 174.458 588.977 175.695 588.488 177.16C588 178.592 587.756 180.188 587.756 181.945V213H573.547V159.143ZM663.537 213V142.541H678.283V173.938H679.162L705.188 142.541H721.594L695.91 173.449L723.4 213H705.725L685.266 183.508L678.283 191.76V213H663.537ZM733.215 159.143H747.424V213H733.215V159.143ZM740.344 151.623C739.074 151.623 737.919 151.444 736.877 151.086C735.835 150.728 734.94 150.24 734.191 149.621C733.475 148.97 732.922 148.205 732.531 147.326C732.141 146.447 731.945 145.487 731.945 144.445C731.945 143.371 732.141 142.395 732.531 141.516C732.922 140.637 733.475 139.888 734.191 139.27C734.94 138.618 735.835 138.13 736.877 137.805C737.919 137.447 739.074 137.268 740.344 137.268C741.613 137.268 742.753 137.447 743.762 137.805C744.803 138.13 745.682 138.618 746.398 139.27C747.147 139.888 747.717 140.637 748.107 141.516C748.531 142.395 748.742 143.371 748.742 144.445C748.742 145.487 748.531 146.447 748.107 147.326C747.717 148.205 747.147 148.97 746.398 149.621C745.682 150.24 744.803 150.728 743.762 151.086C742.753 151.444 741.613 151.623 740.344 151.623ZM780.09 146.35V159.68H791.271V170.861H780.09V195.08C780.09 197.424 780.643 199.149 781.75 200.256C782.857 201.363 784.631 201.916 787.072 201.916C788.016 201.916 788.781 201.9 789.367 201.867C789.953 201.835 790.588 201.786 791.271 201.721V212.561C790.393 212.723 789.318 212.87 788.049 213C786.812 213.13 785.51 213.195 784.143 213.195C780.855 213.195 778.055 212.919 775.744 212.365C773.433 211.812 771.545 210.949 770.08 209.777C768.615 208.573 767.541 207.043 766.857 205.188C766.206 203.332 765.881 201.086 765.881 198.449V170.861H757.482V159.68H765.881V146.35H780.09ZM837.512 178.137C837.023 175.565 835.884 173.514 834.094 171.984C832.303 170.422 829.878 169.641 826.818 169.641C822.977 169.641 820.015 171.024 817.932 173.791C815.881 176.558 814.855 180.611 814.855 185.949C814.855 191.353 815.881 195.471 817.932 198.303C820.015 201.102 822.977 202.502 826.818 202.502C829.748 202.502 832.124 201.818 833.947 200.451C835.77 199.051 836.958 197.017 837.512 194.348H850.793C850.5 197.375 849.735 200.109 848.498 202.551C847.294 204.992 845.666 207.076 843.615 208.801C841.564 210.526 839.123 211.861 836.291 212.805C833.492 213.716 830.334 214.172 826.818 214.172C822.619 214.172 818.876 213.553 815.588 212.316C812.333 211.047 809.582 209.224 807.336 206.848C805.122 204.439 803.43 201.493 802.258 198.01C801.086 194.494 800.5 190.474 800.5 185.949C800.5 181.49 801.07 177.518 802.209 174.035C803.381 170.552 805.09 167.622 807.336 165.246C809.582 162.87 812.333 161.063 815.588 159.826C818.876 158.589 822.619 157.971 826.818 157.971C830.367 157.971 833.557 158.443 836.389 159.387C839.253 160.331 841.695 161.682 843.713 163.439C845.731 165.197 847.342 167.329 848.547 169.836C849.751 172.31 850.5 175.077 850.793 178.137H837.512ZM862.414 138.586H876.379V167.98H877.258C878.495 164.888 880.513 162.479 883.312 160.754C886.145 158.996 889.546 158.117 893.518 158.117C896.415 158.117 899.003 158.573 901.281 159.484C903.56 160.363 905.497 161.665 907.092 163.391C908.687 165.083 909.891 167.199 910.705 169.738C911.551 172.245 911.975 175.109 911.975 178.332V213H897.766V181.701C897.766 177.958 896.919 175.142 895.227 173.254C893.566 171.333 891.109 170.373 887.854 170.373C886.063 170.373 884.468 170.666 883.068 171.252C881.701 171.805 880.529 172.603 879.553 173.645C878.609 174.654 877.876 175.874 877.355 177.307C876.867 178.739 876.623 180.334 876.623 182.092V213H862.414V138.586ZM949.084 168.859C947.424 168.859 945.91 169.136 944.543 169.689C943.176 170.243 941.971 171.024 940.93 172.033C939.921 173.042 939.107 174.263 938.488 175.695C937.87 177.095 937.495 178.674 937.365 180.432H960.314C960.152 176.851 959.077 174.035 957.092 171.984C955.106 169.901 952.437 168.859 949.084 168.859ZM973.84 197.668C973.286 200.207 972.31 202.502 970.91 204.553C969.543 206.571 967.801 208.296 965.686 209.729C963.57 211.161 961.112 212.251 958.312 213C955.546 213.781 952.518 214.172 949.23 214.172C945.129 214.172 941.467 213.553 938.244 212.316C935.021 211.047 932.287 209.224 930.041 206.848C927.795 204.439 926.086 201.509 924.914 198.059C923.742 194.608 923.156 190.702 923.156 186.34C923.156 181.945 923.742 178.007 924.914 174.523C926.118 171.008 927.844 168.029 930.09 165.588C932.336 163.146 935.054 161.275 938.244 159.973C941.434 158.638 945.031 157.971 949.035 157.971C953.007 157.971 956.555 158.589 959.68 159.826C962.805 161.063 965.441 162.854 967.59 165.197C969.771 167.508 971.431 170.357 972.57 173.742C973.71 177.095 974.279 180.904 974.279 185.168V189.514H937.316V190.246C937.349 192.264 937.658 194.071 938.244 195.666C938.863 197.261 939.693 198.628 940.734 199.768C941.809 200.874 943.094 201.737 944.592 202.355C946.089 202.941 947.766 203.234 949.621 203.234C952.453 203.234 954.797 202.762 956.652 201.818C958.54 200.842 959.859 199.458 960.607 197.668H973.84ZM985.949 159.143H999.719V167.785H1000.6C1001.83 164.725 1003.79 162.333 1006.46 160.607C1009.16 158.85 1012.51 157.971 1016.52 157.971C1022.51 157.971 1027.06 159.729 1030.19 163.244C1033.35 166.76 1034.92 171.74 1034.92 178.186V213H1020.71V181.555C1020.71 177.811 1019.9 174.995 1018.27 173.107C1016.68 171.187 1014.19 170.227 1010.8 170.227C1009.14 170.227 1007.66 170.503 1006.36 171.057C1005.06 171.61 1003.93 172.408 1002.99 173.449C1002.08 174.458 1001.38 175.695 1000.89 177.16C1000.4 178.592 1000.16 180.188 1000.16 181.945V213H985.949V159.143Z" fill="black"/>
</svg>
